<?xml version="1.0" encoding="UTF-8"?>
<svg id="Ebene_1" xmlns="http://www.w3.org/2000/svg" version="1.1" viewBox="0 0 512 512">
  <!-- Generator: Adobe Illustrator 29.3.1, SVG Export Plug-In . SVG Version: 2.1.0 Build 151)  -->
  <defs>
    <style>
      .st0, .st1 {
        isolation: isolate;
      }

      .st2 {
        fill: #2f60a1;
      }

      .st3, .st1 {
        fill: #3d7dd2;
      }
    </style>
  </defs>
  <path class="st3" d="M181.1,311c-67.9,0-123-55.1-123-123h0c0-67.9,55.1-123,123-123h64.3l-33.8,33.7h32.5c0,79.5-108.4,32.5-136.4,50.8-34,22.2,73.4,161.5,73.4,161.5Z"/>
  <path class="st3" d="M404,149.5c-28.1-18.3-136.4,28.7-136.4-50.7h32.4l-33.7-33.7h64.3c67.9,0,123,55.1,123,123h0c0,67.9-55.1,123-123,123,0,0,107.5-139.4,73.4-161.5Z"/>
  <rect class="st3" x="266.3" y="200.4" width="20.9" height="57.4" rx="10.4" ry="10.4"/>
  <rect class="st3" x="224.5" y="200.4" width="20.9" height="57.4" rx="10.4" ry="10.4"/>
  <path class="st3" d="M190.6,229.1h130.6c59.8,0,108.4,48.5,108.4,108.3h0c0,59.9-48.5,108.4-108.4,108.4h-130.6c-59.8,0-108.4-48.5-108.4-108.4h0c0-59.8,48.5-108.4,108.4-108.4h0Z"/>
  <g class="st0">
    <path class="st2" d="M293.7,268.3c-13.5,0-26.6,3.9-37.9,11.3-32-20.9-74.9-12-95.8,20-20.9,32-12,74.9,20,95.8,23,15.1,52.7,15.1,75.8,0,32,20.9,74.9,12,95.8-20s12-74.9-20-95.8c-11.3-7.4-24.4-11.3-37.9-11.3Z"/>
  </g>
  <ellipse class="st1" cx="255.8" cy="337.5" rx="31.3" ry="57.9"/>
  <path class="st3" d="M402.8,386.2c36,12.3,66,40.1,59.4,60.8-22.2-15.8-49.1-30.1-73.2-37.2l13.8-23.6Z"/>
  <path class="st3" d="M420,345.9c37.4,7.1,71,30.5,67.4,51.9-24.2-12.5-52.8-22.9-77.7-26.6l10.3-25.3Z"/>
  <path class="st3" d="M417.3,303.4c38,.4,75.3,17.3,75.5,39-26.1-8-56-13.2-81.1-12.3l5.6-26.7Z"/>
  <path class="st3" d="M109.2,386.2c-36,12.3-66,40.1-59.4,60.8,22.2-15.8,49.1-30.1,73.2-37.2l-13.8-23.6Z"/>
  <path class="st3" d="M92,345.9c-37.4,7.1-71,30.4-67.4,51.8,24.2-12.5,52.8-22.9,77.7-26.6l-10.3-25.3Z"/>
  <path class="st3" d="M94.7,303.4c-38,.4-75.3,17.3-75.5,39,26.1-8,56-13.2,81.2-12.3l-5.7-26.7Z"/>
</svg>